# Blender 4.2.3 LTS
# www.blender.org
mtllib table.mtl
o Tisch
v 0.981902 1.630474 -1.045312
v 0.981902 1.630474 1.045312
v 4.111124 1.630474 1.045312
v 4.111124 1.630474 -1.045312
v 0.981902 1.790474 -1.045311
v 0.981903 1.790474 1.045313
v 4.111125 1.790474 1.045311
v 4.111124 1.790474 -1.045312
v 1.393050 0.050302 -0.995342
v 1.393050 1.740287 -0.995342
v 1.393050 0.050302 -0.776624
v 1.393050 1.740287 -0.776624
v 1.153463 0.050302 -0.995342
v 1.153463 1.740287 -0.995342
v 1.153463 0.050302 -0.776624
v 1.153463 1.740287 -0.776624
v 3.994005 0.050302 -0.948529
v 3.994004 1.740287 -0.948529
v 3.994005 0.050302 -0.729811
v 3.994004 1.740287 -0.729811
v 3.754417 0.050302 -0.948529
v 3.754417 1.740287 -0.948529
v 3.754417 0.050302 -0.729811
v 3.754417 1.740287 -0.729811
v 4.051117 0.050302 0.723963
v 4.051116 1.740287 0.723963
v 4.051117 0.050302 0.942681
v 4.051116 1.740287 0.942681
v 3.811530 0.050302 0.723963
v 3.811529 1.740287 0.723963
v 3.811530 0.050302 0.942681
v 3.811529 1.740287 0.942681
v 1.339122 0.050302 0.760326
v 1.339122 1.740287 0.760326
v 1.339122 0.050302 0.979043
v 1.339122 1.740287 0.979043
v 1.099534 0.050302 0.760326
v 1.099534 1.740287 0.760326
v 1.099534 0.050302 0.979043
v 1.099534 1.740287 0.979043
vn -0.0000 -1.0000 -0.0000
vn -0.0000 1.0000 -0.0000
vn -1.0000 -0.0000 -0.0000
vn -0.0000 -0.0000 1.0000
vn 1.0000 -0.0000 -0.0000
vn -0.0000 -0.0000 -1.0000
vt 0.853170 0.000000
vt 0.853170 0.638508
vt 0.426585 0.638508
vt 0.426585 -0.000000
vt -0.000000 0.000000
vt 0.426585 0.000000
vt 0.426585 0.638508
vt 0.000000 0.638508
vt 0.967352 0.426585
vt 0.967352 0.000000
vt 1.000000 0.000000
vt 1.000000 0.426585
vt 0.853170 0.638508
vt 0.853170 0.000000
vt 0.885818 0.000000
vt 0.885818 0.638508
vt 0.967352 0.853170
vt 0.967352 0.426585
vt 1.000000 0.426585
vt 1.000000 0.853170
vt 0.918465 0.000000
vt 0.918465 0.638508
vt 0.885818 0.638508
vt 0.885818 0.000000
vt 0.337951 0.983344
vt 0.293322 0.983344
vt 0.293322 0.638508
vt 0.337951 0.638508
vt 0.967353 0.344836
vt 0.918465 0.344836
vt 0.918465 0.000000
vt 0.967353 0.000000
vt 0.382579 0.983344
vt 0.337951 0.983344
vt 0.337951 0.638508
vt 0.382579 0.638508
vt 0.967353 0.689672
vt 0.918465 0.689672
vt 0.918465 0.344836
vt 0.967353 0.344836
vt 0.694980 0.687395
vt 0.650351 0.687395
vt 0.650351 0.638508
vt 0.694980 0.638508
vt 0.694980 0.736282
vt 0.650351 0.736282
vt 0.650351 0.687395
vt 0.427208 0.983344
vt 0.382579 0.983344
vt 0.382579 0.638508
vt 0.427208 0.638508
vt 0.097774 0.983344
vt 0.048887 0.983344
vt 0.048887 0.638508
vt 0.097774 0.638508
vt 0.471837 0.983344
vt 0.471837 0.638508
vt 0.195548 0.983344
vt 0.146661 0.983344
vt 0.146661 0.638508
vt 0.195548 0.638508
vt 0.739608 0.687395
vt 0.694980 0.687395
vt 0.739608 0.638508
vt 0.739608 0.736282
vt 0.739608 0.687395
vt 0.561094 0.983344
vt 0.516465 0.983344
vt 0.516465 0.638508
vt 0.561094 0.638508
vt 0.244435 0.983344
vt 0.195548 0.983344
vt 0.195548 0.638508
vt 0.244435 0.638508
vt 0.605723 0.983344
vt 0.605723 0.638508
vt 0.293322 0.983344
vt 0.244435 0.983344
vt 0.244435 0.638508
vt 0.293322 0.638508
vt 0.694980 0.785169
vt 0.650351 0.785169
vt 0.694980 0.736282
vt 0.739608 0.785169
vt 0.694980 0.785169
vt 0.516465 0.983344
vt 0.471837 0.983344
vt 0.471837 0.638508
vt 0.516465 0.638508
vt 0.146661 0.983344
vt 0.097774 0.983344
vt 0.097774 0.638508
vt 0.146661 0.638508
vt 0.650351 0.983344
vt 0.605723 0.983344
vt 0.605723 0.638508
vt 0.650351 0.638508
vt 0.048887 0.983344
vt 0.000000 0.983344
vt 0.000000 0.638508
vt 0.048887 0.638508
vt 0.784237 0.687395
vt 0.739609 0.687395
vt 0.739609 0.638508
vt 0.784237 0.638508
vt 0.784237 0.736282
vt 0.739609 0.736282
vt 0.739609 0.687395
vt 0.784237 0.687395
s 0
usemtl WoodTableMat
f 1/1/1 4/2/1 3/3/1 2/4/1
f 5/5/2 6/6/2 7/7/2 8/8/2
f 1/9/3 2/10/3 6/11/3 5/12/3
f 2/13/4 3/14/4 7/15/4 6/16/4
f 3/17/5 4/18/5 8/19/5 7/20/5
f 5/21/6 8/22/6 4/23/6 1/24/6
f 10/25/5 12/26/5 11/27/5 9/28/5
f 12/29/4 16/30/4 15/31/4 11/32/4
f 16/33/3 14/34/3 13/35/3 15/36/3
f 14/37/6 10/38/6 9/39/6 13/40/6
f 9/41/1 11/42/1 15/43/1 13/44/1
f 14/45/2 16/46/2 12/47/2 10/41/2
f 18/48/5 20/49/5 19/50/5 17/51/5
f 20/52/4 24/53/4 23/54/4 19/55/4
f 24/56/3 22/48/3 21/51/3 23/57/3
f 22/58/6 18/59/6 17/60/6 21/61/6
f 17/62/1 19/63/1 23/44/1 21/64/1
f 22/65/2 24/45/2 20/41/2 18/66/2
f 26/67/5 28/68/5 27/69/5 25/70/5
f 28/71/4 32/72/4 31/73/4 27/74/4
f 32/75/3 30/67/3 29/70/3 31/76/3
f 30/77/6 26/78/6 25/79/6 29/80/6
f 25/81/1 27/82/1 31/46/1 29/83/1
f 30/84/2 32/85/2 28/45/2 26/65/2
f 34/86/5 36/87/5 35/88/5 33/89/5
f 36/90/4 40/91/4 39/92/4 35/93/4
f 40/94/3 38/95/3 37/96/3 39/97/3
f 38/98/6 34/99/6 33/100/6 37/101/6
f 33/102/1 35/103/1 39/104/1 37/105/1
f 38/106/2 40/107/2 36/108/2 34/109/2
