{
	"asset":{
		"generator":"Khronos glTF Blender I/O v4.2.70",
		"version":"2.0"
	},
	"extensionsUsed":[
		"KHR_materials_specular"
	],
	"scene":0,
	"scenes":[
		{
			"name":"Scene",
			"nodes":[
				0,
				1
			]
		}
	],
	"nodes":[
		{
			"mesh":0,
			"name":"Plane",
			"scale":[
				1,
				1,
				1.5
			],
			"translation":[
				1,
				0,
				0
			]
		},
		{
			"mesh":1,
			"name":"Pages",
			"scale":[
				1,
				1,
				1.5
			],
			"translation":[
				1,
				0,
				0
			]
		}
	],
	"materials":[
		{
			"doubleSided":true,
			"name":"BookCover",
			"pbrMetallicRoughness":{
				"baseColorFactor":[
					0.6351041793823242,
					0.019542593508958817,
					0.005942246876657009,
					1
				],
				"metallicFactor":0,
				"roughnessFactor":0.5
			}
		},
		{
			"doubleSided":true,
			"extensions":{
				"KHR_materials_specular":{
					"specularFactor":0
				}
			},
			"name":"Pages",
			"pbrMetallicRoughness":{
				"baseColorTexture":{
					"index":0
				},
				"metallicFactor":0,
				"roughnessFactor":0.5
			}
		}
	],
	"meshes":[
		{
			"name":"Plane",
			"primitives":[
				{
					"attributes":{
						"POSITION":0,
						"NORMAL":1,
						"TEXCOORD_0":2
					},
					"indices":3,
					"material":0
				}
			]
		},
		{
			"name":"Plane.001",
			"primitives":[
				{
					"attributes":{
						"POSITION":4,
						"NORMAL":5,
						"TEXCOORD_0":6
					},
					"indices":7,
					"material":1
				}
			]
		}
	],
	"textures":[
		{
			"sampler":0,
			"source":0
		}
	],
	"images":[
		{
			"mimeType":"image/png",
			"name":"buch_text",
			"uri":"buch_text.png"
		}
	],
	"accessors":[
		{
			"bufferView":0,
			"componentType":5126,
			"count":408,
			"max":[
				1.0999668836593628,
				0.186568483710289,
				1
			],
			"min":[
				-3.0999670028686523,
				-0.002894740551710129,
				-1.0000001192092896
			],
			"type":"VEC3"
		},
		{
			"bufferView":1,
			"componentType":5126,
			"count":408,
			"type":"VEC3"
		},
		{
			"bufferView":2,
			"componentType":5126,
			"count":408,
			"type":"VEC2"
		},
		{
			"bufferView":3,
			"componentType":5123,
			"count":774,
			"type":"SCALAR"
		},
		{
			"bufferView":4,
			"componentType":5126,
			"count":279,
			"max":[
				1.0311261415481567,
				0.4064779579639435,
				0.9333333969116211
			],
			"min":[
				-3.0311262607574463,
				0.100875124335289,
				-0.9333333969116211
			],
			"type":"VEC3"
		},
		{
			"bufferView":5,
			"componentType":5126,
			"count":279,
			"type":"VEC3"
		},
		{
			"bufferView":6,
			"componentType":5126,
			"count":279,
			"type":"VEC2"
		},
		{
			"bufferView":7,
			"componentType":5123,
			"count":1224,
			"type":"SCALAR"
		}
	],
	"bufferViews":[
		{
			"buffer":0,
			"byteLength":4896,
			"byteOffset":0,
			"target":34962
		},
		{
			"buffer":0,
			"byteLength":4896,
			"byteOffset":4896,
			"target":34962
		},
		{
			"buffer":0,
			"byteLength":3264,
			"byteOffset":9792,
			"target":34962
		},
		{
			"buffer":0,
			"byteLength":1548,
			"byteOffset":13056,
			"target":34963
		},
		{
			"buffer":0,
			"byteLength":3348,
			"byteOffset":14604,
			"target":34962
		},
		{
			"buffer":0,
			"byteLength":3348,
			"byteOffset":17952,
			"target":34962
		},
		{
			"buffer":0,
			"byteLength":2232,
			"byteOffset":21300,
			"target":34962
		},
		{
			"buffer":0,
			"byteLength":2448,
			"byteOffset":23532,
			"target":34963
		}
	],
	"samplers":[
		{
			"magFilter":9729,
			"minFilter":9987
		}
	],
	"buffers":[
		{
			"byteLength":25980,
			"uri":"buch_neu_comb.bin"
		}
	]
}
