# Blender 4.2.3 LTS
# www.blender.org
mtllib wand2.mtl
o Seite
v 4.410527 0.000000 -3.400000
v 0.210526 0.000000 -3.400000
v 4.410527 0.000000 -3.200000
v 4.410527 2.500000 -3.400000
v 0.210526 2.500000 -3.400000
v 4.410527 2.500000 -3.200000
v 0.210526 0.000000 -3.200000
v 0.210526 2.500000 -3.200000
vn 1.0000 -0.0000 -0.0000
vn -0.0000 1.0000 -0.0000
vn -0.0000 -0.0000 -1.0000
vn -0.0000 -0.0000 1.0000
vn -1.0000 -0.0000 -0.0000
vn -0.0000 -1.0000 -0.0000
vt 0.999923 0.294146
vt 0.999923 0.315929
vt 0.727637 0.315930
vt 0.727637 0.294147
vt 0.272375 0.021861
vt 0.272375 0.000078
vt 0.727637 0.000077
vt 0.727637 0.021861
vt 0.272375 0.294147
vt 0.727638 0.588216
vt 0.272375 0.588217
vt 0.272375 0.315931
vt 0.000077 0.294147
vt 0.000077 0.315931
s 0
usemtl Wall
f 4/1/1 6/2/1 3/3/1 1/4/1
f 5/5/2 8/6/2 6/7/2 4/8/2
f 2/9/3 5/5/3 4/8/3 1/4/3
f 6/10/4 8/11/4 7/12/4 3/3/4
f 5/13/5 2/9/5 7/12/5 8/14/5
f 2/9/6 1/4/6 3/3/6 7/12/6
