# Blender 4.2.3 LTS
# www.blender.org
mtllib gang_comb.mtl
o Floor
v 5.999997 -0.050000 1.499999
v -5.999998 -0.050000 1.499999
v -5.999995 -0.050000 -1.500000
v -5.999999 0.050000 1.499999
v 5.999997 -0.050000 -1.499999
v -5.999997 0.050000 -1.499999
v 5.999997 -0.050000 0.000000
v 5.999993 0.050000 1.500000
v -5.999998 0.050000 -0.000000
v 6.000000 0.050000 -1.499998
v 5.999997 0.050000 0.000001
v -5.999997 -0.050000 -0.000000
v -2.565502 0.000000 0.278715
v -2.702286 0.000000 0.295516
v -2.828346 0.000000 0.322798
v -2.938839 0.000000 0.359514
v -3.029519 0.000000 0.404253
v -3.096900 0.000000 0.455294
v -3.138393 0.000000 0.510678
v -3.152403 0.000000 0.568275
v -3.138393 0.000000 0.625872
v -3.096900 0.000000 0.681256
v -3.029519 0.000000 0.732297
v -2.938839 0.000000 0.777036
v -2.828346 0.000000 0.813752
v -2.702286 0.000000 0.841034
v -2.565502 0.000000 0.857835
v -2.423251 0.000000 0.863508
v -2.281001 0.000000 0.857835
v -2.144217 0.000000 0.841034
v -2.018157 0.000000 0.813752
v -1.907663 0.000000 0.777036
v -1.816984 0.000000 0.732297
v -1.749603 0.000000 0.681255
v -1.708111 0.000000 0.625872
v -1.694100 0.000000 0.568275
v -1.708111 0.000000 0.510678
v -1.749604 0.000000 0.455294
v -1.816985 0.000000 0.404252
v -1.907664 0.000000 0.359514
v -2.018158 0.000000 0.322798
v -2.144218 0.000000 0.295516
v -2.281002 0.000000 0.278715
v -2.423252 0.000000 0.273043
v -2.565502 0.053354 0.278715
v -2.702286 0.053354 0.295516
v -2.828346 0.053354 0.322798
v -2.938839 0.053354 0.359514
v -3.029519 0.053354 0.404253
v -3.096900 0.053354 0.455294
v -3.138393 0.053354 0.510678
v -3.152403 0.053354 0.568275
v -3.138393 0.053354 0.625872
v -3.096900 0.053354 0.681256
v -3.029519 0.053354 0.732297
v -2.938839 0.053354 0.777036
v -2.828346 0.053354 0.813752
v -2.702286 0.053354 0.841034
v -2.565502 0.053354 0.857835
v -2.423251 0.053354 0.863508
v -2.281001 0.053354 0.857835
v -2.144217 0.053354 0.841034
v -2.018157 0.053354 0.813752
v -1.907663 0.053354 0.777036
v -1.816984 0.053354 0.732297
v -1.749603 0.053354 0.681255
v -1.708111 0.053354 0.625872
v -1.694100 0.053354 0.568275
v -1.708111 0.053354 0.510678
v -1.749604 0.053354 0.455294
v -1.816985 0.053354 0.404252
v -1.907664 0.053354 0.359514
v -2.018158 0.053354 0.322798
v -2.144218 0.053354 0.295516
v -2.281002 0.053354 0.278715
v -2.423252 0.053354 0.273043
v -2.460002 0.050000 1.499999
v -2.459999 0.050000 0.000000
vn 0.0086 1.0000 -0.0000
vn 1.0000 -0.0000 -0.0000
vn 0.0167 -0.9999 -0.0000
vn 0.0083 -0.9994 -0.0333
vn 0.0083 0.9994 -0.0333
vn 0.0085 1.0000 -0.0000
vn -1.0000 -0.0000 -0.0000
vn -0.0000 -0.9994 -0.0333
vn -0.0000 -1.0000 -0.0000
vn -0.0000 0.9994 -0.0333
vn 0.6038 -0.0000 0.7971
vn -0.0003 1.0000 -0.0000
vn -0.0001 1.0000 -0.0000
vn -0.0398 -0.0000 0.9992
vn -0.3153 -0.0000 -0.9490
vn 0.8003 -0.0000 0.5996
vn -0.4425 -0.0000 -0.8968
vn 0.9717 -0.0000 0.2364
vn -0.6038 -0.0000 -0.7971
vn 0.9717 -0.0000 -0.2364
vn -0.8003 -0.0000 -0.5996
vn 0.8003 -0.0000 -0.5996
vn -0.9717 -0.0000 -0.2364
vn 0.6038 -0.0000 -0.7971
vn -0.9717 -0.0000 0.2364
vn 0.4424 -0.0000 -0.8968
vn -0.8003 -0.0000 0.5996
vn 0.3153 -0.0000 -0.9490
vn -0.6038 -0.0000 0.7971
vn 0.2115 -0.0000 -0.9774
vn -0.4424 -0.0000 0.8968
vn 0.1219 -0.0000 -0.9925
vn 0.1219 -0.0000 0.9925
vn -0.3153 -0.0000 0.9490
vn 0.0398 -0.0000 -0.9992
vn 0.2115 -0.0000 0.9774
vn -0.2115 -0.0000 0.9774
vn -0.0398 -0.0000 -0.9992
vn 0.3153 -0.0000 0.9490
vn -0.1219 -0.0000 0.9925
vn -0.1219 -0.0000 -0.9925
vn 0.4424 -0.0000 0.8968
vn 0.0398 -0.0000 0.9992
vn -0.2115 -0.0000 -0.9774
vn -0.0002 1.0000 -0.0000
vn 0.0003 1.0000 -0.0000
vn -0.0000 1.0000 -0.0000
vn -0.0000 -0.0000 1.0000
vn -0.0007 1.0000 -0.0000
vt 0.000000 0.000000
vt 0.333342 0.000000
vt 0.333342 0.166671
vt 0.333342 0.333342
vt 0.000000 0.333342
vt 0.000000 0.166671
vt 0.000000 0.500013
vt 0.333342 0.500013
vt 0.333342 0.666684
vt -0.000000 0.666684
vt 0.666684 0.666684
vt 0.666684 0.333342
vt 0.833355 0.333342
vt 0.833355 0.666684
vt 0.000000 0.333342
vt 0.333342 0.333342
vt 0.333342 0.333342
vt 0.333342 0.000000
vt 0.666684 0.000000
vt 0.063603 0.844536
vt 0.063603 0.666684
vt 0.069274 0.666684
vt 0.069274 0.844536
vt 0.666684 0.333342
vt 0.666684 0.166671
vt 0.765012 0.166671
vt 1.000000 0.166671
vt 1.000000 0.333342
vt 0.142862 0.844536
vt 0.138911 0.844536
vt 0.138911 0.666684
vt 0.142862 0.666684
vt 0.000000 0.844536
vt 0.000000 0.666684
vt 0.004080 0.666684
vt 0.004080 0.844536
vt 0.075428 0.666684
vt 0.075428 0.844536
vt 0.009051 0.666684
vt 0.009051 0.844536
vt 0.081828 0.666684
vt 0.081828 0.844536
vt 0.014722 0.666684
vt 0.014722 0.844536
vt 0.088228 0.666684
vt 0.088228 0.844536
vt 0.020876 0.666684
vt 0.020876 0.844536
vt 0.094381 0.666684
vt 0.094381 0.844536
vt 0.027276 0.666684
vt 0.027276 0.844536
vt 0.100053 0.666684
vt 0.100053 0.844536
vt 0.033676 0.666684
vt 0.033676 0.844536
vt 0.105024 0.666684
vt 0.105024 0.844536
vt 0.039830 0.666684
vt 0.039830 0.844536
vt 0.109104 0.666684
vt 0.109104 0.844536
vt 0.045501 0.666684
vt 0.045501 0.844536
vt 0.112605 0.666684
vt 0.112605 0.844536
vt 0.050472 0.666684
vt 0.050472 0.844536
vt 0.116405 0.666684
vt 0.116405 0.844536
vt 0.146814 0.844536
vt 0.146814 0.666684
vt 0.150614 0.666684
vt 0.150614 0.844536
vt 0.054552 0.666684
vt 0.054552 0.844536
vt 0.120357 0.666684
vt 0.120357 0.844536
vt 0.154115 0.666684
vt 0.154115 0.844536
vt 0.131610 0.844536
vt 0.131610 0.666684
vt 0.135111 0.666684
vt 0.135111 0.844536
vt 0.124308 0.666684
vt 0.124308 0.844536
vt 0.058631 0.666684
vt 0.058631 0.844536
vt 0.128108 0.666684
vt 0.128108 0.844536
vt 0.131610 0.666684
vt 0.131610 0.844536
vt 0.766171 0.136332
vt 0.770122 0.135702
vt 0.773922 0.133835
vt 0.777423 0.130804
vt 0.780492 0.126724
vt 0.783011 0.121753
vt 0.784883 0.116081
vt 0.786035 0.109928
vt 0.786424 0.103528
vt 0.786035 0.097128
vt 0.784883 0.090974
vt 0.783011 0.085303
vt 0.780492 0.080331
vt 0.777423 0.076252
vt 0.773922 0.073220
vt 0.770122 0.071354
vt 0.766171 0.070723
vt 0.765012 0.000000
vt 1.000000 0.000000
vt 0.180228 0.667553
vt 0.183907 0.669647
vt 0.187218 0.672885
vt 0.190034 0.677144
vt 0.192246 0.682258
vt 0.193770 0.688033
vt 0.194547 0.694245
vt 0.194547 0.700657
vt 0.193770 0.707021
vt 0.192246 0.713094
vt 0.190034 0.718641
vt 0.187218 0.723450
vt 0.183907 0.727336
vt 0.180228 0.730150
vt 0.176322 0.731782
vt 0.172340 0.732172
vt 0.168434 0.731303
vt 0.164755 0.729209
vt 0.161444 0.725970
vt 0.158629 0.721712
vt 0.156416 0.716597
vt 0.154892 0.710823
vt 0.154115 0.704610
vt 0.154115 0.698198
vt 0.154892 0.691834
vt 0.156416 0.685761
vt 0.158629 0.680214
vt 0.161444 0.675405
vt 0.164755 0.671519
vt 0.168434 0.668706
vt 0.172340 0.667073
vt 0.176322 0.666684
vt 0.568348 0.333342
vt 0.666684 0.333342
vt 0.666684 0.666684
vt 0.333342 0.666684
vt 0.333342 0.333342
vt 0.666684 0.000000
vt 0.762220 0.071354
vt 0.758421 0.073220
vt 0.754919 0.076252
vt 0.751850 0.080331
vt 0.749331 0.085302
vt 0.747460 0.090974
vt 0.746307 0.097128
vt 0.745918 0.103528
vt 0.746307 0.109927
vt 0.747460 0.116081
vt 0.749331 0.121753
vt 0.751850 0.126724
vt 0.754919 0.130804
vt 0.758421 0.133835
vt 0.762220 0.135702
s 1
usemtl Floor
f 8/1/1 1/2/2 7/3/3 5/4/4 10/5/5 11/6/6
s 0
f 9/7/7 12/8/7 2/9/7 4/10/7
s 1
f 3/11/8 5/12/4 7/13/3 12/14/9
s 0
f 12/8/7 9/7/7 6/15/7 3/16/7
s 1
f 3/12/8 6/17/10 10/18/5 5/19/4
s 0
f 17/20/11 49/21/11 50/22/11 18/23/11
s 1
f 6/24/10 9/25/12 78/26/13 11/27/6 10/28/5
s 0
f 44/29/14 43/30/14 75/31/14 76/32/14
f 31/33/15 63/34/15 64/35/15 32/36/15
f 18/23/16 50/22/16 51/37/16 19/38/16
f 32/36/17 64/35/17 65/39/17 33/40/17
f 19/38/18 51/37/18 52/41/18 20/42/18
f 33/40/19 65/39/19 66/43/19 34/44/19
f 20/42/20 52/41/20 53/45/20 21/46/20
f 34/44/21 66/43/21 67/47/21 35/48/21
f 21/46/22 53/45/22 54/49/22 22/50/22
f 35/48/23 67/47/23 68/51/23 36/52/23
f 22/50/24 54/49/24 55/53/24 23/54/24
f 36/52/25 68/51/25 69/55/25 37/56/25
f 23/54/26 55/53/26 56/57/26 24/58/26
f 37/56/27 69/55/27 70/59/27 38/60/27
f 24/58/28 56/57/28 57/61/28 25/62/28
f 38/60/29 70/59/29 71/63/29 39/64/29
f 25/62/30 57/61/30 58/65/30 26/66/30
f 39/64/31 71/63/31 72/67/31 40/68/31
f 26/66/32 58/65/32 59/69/32 27/70/32
f 13/71/33 45/72/33 46/73/33 14/74/33
f 40/68/34 72/67/34 73/75/34 41/76/34
f 27/70/35 59/69/35 60/77/35 28/78/35
f 14/74/36 46/73/36 47/79/36 15/80/36
f 41/81/37 73/82/37 74/83/37 42/84/37
f 28/78/38 60/77/38 61/85/38 29/86/38
f 15/76/39 47/75/39 48/87/39 16/88/39
f 42/84/40 74/83/40 75/31/40 43/30/40
f 29/86/41 61/85/41 62/89/41 30/90/41
f 16/88/42 48/87/42 49/21/42 17/20/42
f 44/29/43 76/32/43 45/72/43 13/71/43
f 30/90/44 62/89/44 63/91/44 31/92/44
s 1
f 11/27/6 78/26/13 76/93/45 75/94/46 74/95/46 73/96/46 72/97/46 71/98/46 70/99/46 69/100/46 68/101/46 67/102/46 66/103/46 65/104/46 64/105/46 63/106/46 62/107/46 61/108/46 60/109/45 77/110/45 8/111/1
s 0
f 13/112/47 14/113/47 15/114/47 16/115/47 17/116/47 18/117/47 19/118/47 20/119/47 21/120/47 22/121/47 23/122/47 24/123/47 25/124/47 26/125/47 27/126/47 28/127/47 29/128/47 30/129/47 31/130/47 32/131/47 33/132/47 34/133/47 35/134/47 36/135/47 37/136/47 38/137/47 39/138/47 40/139/47 41/140/47 42/141/47 43/142/47 44/143/47
f 77/144/48 4/145/48 2/146/48 1/147/48 8/148/48
s 1
f 9/25/12 4/149/49 77/110/45 60/109/45 59/150/49 58/151/49 57/152/49 56/153/49 55/154/49 54/155/49 53/156/49 52/157/49 51/158/49 50/159/49 49/160/49 48/161/49 47/162/49 46/163/49 45/164/49 76/93/45 78/26/13
o Blood
v -2.410514 0.020401 0.277123
v -2.552764 0.020401 0.282796
v -2.689548 0.020401 0.299596
v -2.815609 0.020401 0.326879
v -2.926102 0.020401 0.363595
v -3.016781 0.020401 0.408333
v -3.084162 0.020401 0.459375
v -3.125655 0.020401 0.514758
v -3.139665 0.020401 0.572355
v -3.125655 0.020401 0.629952
v -3.084162 0.020401 0.685336
v -3.016781 0.020401 0.736378
v -2.926102 0.020401 0.781116
v -2.815609 0.020401 0.817832
v -2.689548 0.020401 0.845115
v -2.552764 0.020401 0.861915
v -2.410514 0.020401 0.867588
v -2.268263 0.020401 0.861915
v -2.131480 0.020401 0.845115
v -2.005419 0.020401 0.817832
v -1.894926 0.020401 0.781116
v -1.804246 0.020401 0.736378
v -1.736866 0.020401 0.685336
v -1.695373 0.020401 0.629952
v -1.681363 0.020401 0.572355
v -1.695373 0.020401 0.514758
v -1.736866 0.020401 0.459375
v -1.804247 0.020401 0.408333
v -1.894927 0.020401 0.363594
v -2.005420 0.020401 0.326878
v -2.131481 0.020401 0.299596
v -2.268265 0.020401 0.282796
v -2.552764 0.030401 0.282796
v -2.410514 0.030401 0.277123
v -2.689548 0.030401 0.299596
v -2.815609 0.030401 0.326879
v -2.926102 0.030401 0.363595
v -3.016781 0.030401 0.408333
v -3.084162 0.030401 0.459375
v -3.125655 0.030401 0.514758
v -3.139665 0.030401 0.572355
v -3.125655 0.030401 0.629952
v -3.084162 0.030401 0.685336
v -3.016781 0.030401 0.736378
v -2.926102 0.030401 0.781116
v -2.815609 0.030401 0.817832
v -2.689548 0.030401 0.845115
v -2.552764 0.030401 0.861915
v -2.410514 0.030401 0.867588
v -2.268263 0.030401 0.861915
v -2.131480 0.030401 0.845115
v -2.005419 0.030401 0.817832
v -1.894926 0.030401 0.781116
v -1.804246 0.030401 0.736378
v -1.736866 0.030401 0.685336
v -1.695373 0.030401 0.629952
v -1.681363 0.030401 0.572355
v -1.695373 0.030401 0.514758
v -1.736866 0.030401 0.459375
v -1.804247 0.030401 0.408333
v -1.894927 0.030401 0.363594
v -2.005420 0.030401 0.326878
v -2.131481 0.030401 0.299596
v -2.268265 0.030401 0.282796
vn -0.0000 -0.0000 -1.0000
vn -0.0791 -0.0000 -0.9969
vn -0.1634 -0.0000 -0.9866
vn -0.2586 -0.0000 -0.9660
vn -0.3725 -0.0000 -0.9280
vn -0.5155 -0.0000 -0.8569
vn -0.6967 -0.0000 -0.7174
vn -0.8965 -0.0000 -0.4431
vn -1.0000 -0.0000 -0.0000
vn -0.8965 -0.0000 0.4431
vn -0.6967 -0.0000 0.7174
vn -0.5155 -0.0000 0.8569
vn -0.3725 -0.0000 0.9280
vn -0.2586 -0.0000 0.9660
vn -0.1634 -0.0000 0.9866
vn -0.0791 -0.0000 0.9969
vn -0.0000 -0.0000 1.0000
vn 0.0791 -0.0000 0.9969
vn 0.1634 -0.0000 0.9866
vn 0.2586 -0.0000 0.9660
vn 0.3725 -0.0000 0.9280
vn 0.5155 -0.0000 0.8569
vn 0.6967 -0.0000 0.7174
vn 0.8965 -0.0000 0.4431
vn 1.0000 -0.0000 -0.0000
vn 0.8965 -0.0000 -0.4431
vn 0.6967 -0.0000 -0.7174
vn 0.5155 -0.0000 -0.8569
vn 0.3725 -0.0000 -0.9280
vn 0.2586 -0.0000 -0.9660
vn 0.1634 -0.0000 -0.9866
vn 0.0791 -0.0000 -0.9969
vn -0.0028 0.9994 -0.0347
vn -0.0000 0.9993 -0.0366
vn -0.0050 0.9995 -0.0300
vn -0.0065 0.9997 -0.0243
vn -0.0075 0.9998 -0.0186
vn -0.0081 0.9999 -0.0134
vn -0.0084 0.9999 -0.0087
vn -0.0086 1.0000 -0.0042
vn -0.0087 1.0000 -0.0000
vn -0.0086 1.0000 0.0042
vn -0.0084 0.9999 0.0087
vn -0.0081 0.9999 0.0134
vn -0.0075 0.9998 0.0186
vn -0.0065 0.9997 0.0243
vn -0.0050 0.9995 0.0300
vn -0.0028 0.9994 0.0347
vn -0.0000 0.9993 0.0366
vn 0.0028 0.9994 0.0347
vn 0.0050 0.9995 0.0300
vn 0.0065 0.9997 0.0243
vn 0.0075 0.9998 0.0186
vn 0.0081 0.9999 0.0134
vn 0.0084 0.9999 0.0087
vn 0.0086 1.0000 0.0042
vn 0.0087 1.0000 -0.0000
vn 0.0086 1.0000 -0.0042
vn 0.0084 0.9999 -0.0087
vn 0.0081 0.9999 -0.0134
vn 0.0075 0.9998 -0.0186
vn 0.0065 0.9997 -0.0243
vn 0.0050 0.9995 -0.0300
vn 0.0028 0.9994 -0.0347
s 1
usemtl Material.002
f 111//82 113//84 114//85 115//86 116//87 117//88 118//89 119//90 120//91 121//92 122//93 123//94 124//95 125//96 126//97 127//98 128//99 129//100 130//101 131//102 132//103 133//104 134//105 135//106 136//107 137//108 138//109 139//110 140//111 141//112 142//113 112//83
f 95//66 96//67 128//99 127//98
f 82//53 83//54 115//86 114//85
f 109//80 110//81 142//113 141//112
f 96//67 97//68 129//100 128//99
f 83//54 84//55 116//87 115//86
f 110//81 79//50 112//83 142//113
f 97//68 98//69 130//101 129//100
f 84//55 85//56 117//88 116//87
f 98//69 99//70 131//102 130//101
f 85//56 86//57 118//89 117//88
f 99//70 100//71 132//103 131//102
f 86//57 87//58 119//90 118//89
f 100//71 101//72 133//104 132//103
f 87//58 88//59 120//91 119//90
f 101//72 102//73 134//105 133//104
f 88//59 89//60 121//92 120//91
f 102//73 103//74 135//106 134//105
f 89//60 90//61 122//93 121//92
f 103//74 104//75 136//107 135//106
f 90//61 91//62 123//94 122//93
f 104//75 105//76 137//108 136//107
f 91//62 92//63 124//95 123//94
f 105//76 106//77 138//109 137//108
f 92//63 93//64 125//96 124//95
f 79//50 80//51 111//82 112//83
f 106//77 107//78 139//110 138//109
f 93//64 94//65 126//97 125//96
f 80//51 81//52 113//84 111//82
f 107//78 108//79 140//111 139//110
f 94//65 95//66 127//98 126//97
f 81//52 82//53 114//85 113//84
f 108//79 109//80 141//112 140//111
